# xmcd
#
# Track frame offsets:
#	150
#	9825
#	21825
#	32737
#	44550
#	56475
#	63375
#	73050
#	86100
#	95925
#	111150
#	122025
#	134400
#	147075
#	155925
#	167900
#
# Disc length: 2398
#
# Revision: 2
# Processed by: cddbd v1.5.1PL0 Copyright (c) Steve Scherf et al.
# Submitted via: ExactAudioCopy v0.95a4
# Normalized: r0:TSWAP
#
DISCID=eb095c10
DTITLE=Various Artist - Willie Nelson and Waylon Jennings - Dolly Parton and Donna Fargo
DYEAR=1900
DGENRE=Country
TTITLE0=Willie Nelson - Building Heartaches
TTITLE1=Waylon Jennings - Crying
TTITLE2=Dolly Parton - Honky Tonk angels
TTITLE3=Dolly Parton - Makin' Believe
TTITLE4=Willie Nelson - Is There Something On Your Mind
TTITLE5=Waylon Jennings - It's So Easy
TTITLE6=Donna Fargo - Sticks And Stones
TTITLE7=Donna Fargo - Daddy
TTITLE8=Dolly Parton - Release Me
TTITLE9=Willie Nelson - Face Of A Fighter
TTITLE10=Donna Fargo - Wishful Thinking
TTITLE11=Waylon Jennings - Don't Think Twice
TTITLE12=Dolly Parton - Little Blossom
TTITLE13=Waylon Jennings - Abilene
TTITLE14=Dolly Parton - Letter To Heaven
TTITLE15=Dolly Parton - Two Little Orphans
EXTD=
EXTT0=
EXTT1=
EXTT2=
EXTT3=
EXTT4=
EXTT5=
EXTT6=
EXTT7=
EXTT8=
EXTT9=
EXTT10=
EXTT11=
EXTT12=
EXTT13=
EXTT14=
EXTT15=
PLAYORDER=
